# Tiled2Unity generated file. Do not modify by hand.
# Wavefront file for 'Kahris_home_mesh_0004.obj'

# Vertices (Count = 64)
v 0 -3.902439 0
v -1.02439 -3.902439 0
v -1.02439 -2.878049 0
v 0 -2.878049 0
v -12.68293 -3.902439 0
v -13.70732 -3.902439 0
v -13.70732 -2.878049 0
v -12.68293 -2.878049 0
v 0 -4.878048 0
v -1.02439 -4.878048 0
v -1.02439 -3.853658 0
v 0 -3.853658 0
v -6.829268 -4.878048 0
v -7.853658 -4.878048 0
v -7.853658 -3.853658 0
v -6.829268 -3.853658 0
v -7.804878 -4.878048 0
v -8.829268 -4.878048 0
v -8.829268 -3.853658 0
v -7.804878 -3.853658 0
v -8.780487 -4.878048 0
v -9.804877 -4.878048 0
v -9.804877 -3.853658 0
v -8.780487 -3.853658 0
v -12.68293 -4.878048 0
v -13.70732 -4.878048 0
v -13.70732 -3.853658 0
v -12.68293 -3.853658 0
v 0 -5.853658 0
v -1.02439 -5.853658 0
v -1.02439 -4.829268 0
v 0 -4.829268 0
v -2.926829 -5.853658 0
v -3.951219 -5.853658 0
v -3.951219 -4.829268 0
v -2.926829 -4.829268 0
v -6.829268 -5.853658 0
v -7.853658 -5.853658 0
v -7.853658 -4.829268 0
v -6.829268 -4.829268 0
v -8.780487 -5.853658 0
v -9.804877 -5.853658 0
v -9.804877 -4.829268 0
v -8.780487 -4.829268 0
v -12.68293 -5.853658 0
v -13.70732 -5.853658 0
v -13.70732 -4.829268 0
v -12.68293 -4.829268 0
v 0 -6.829268 0
v -1.02439 -6.829268 0
v -1.02439 -5.804878 0
v 0 -5.804878 0
v -12.68293 -6.829268 0
v -13.70732 -6.829268 0
v -13.70732 -5.804878 0
v -12.68293 -5.804878 0
v 0 -7.804878 0
v -1.02439 -7.804878 0
v -1.02439 -6.780488 0
v 0 -6.780488 0
v -12.68293 -7.804878 0
v -13.70732 -7.804878 0
v -13.70732 -6.780488 0
v -12.68293 -6.780488 0

# Texture cooridinates (Count = 8)
vt 0.1690751 0.265896
vt 0.1690751 0.2355492
vt 0.199422 0.2355492
vt 0.199422 0.265896
vt 0.2023121 0.00289017
vt 0.232659 0.00289017
vt 0.232659 0.03323698
vt 0.2023121 0.03323698

# Normal
vn 0 0 -1

# Mesh description
g Kahris_home_mesh_0004

# Faces
f 1/1/1 2/2/1 3/3/1 4/4/1
f 5/3/1 6/4/1 7/1/1 8/2/1
f 9/1/1 10/2/1 11/3/1 12/4/1
f 13/1/1 14/2/1 15/3/1 16/4/1
f 17/2/1 18/3/1 19/4/1 20/1/1
f 21/3/1 22/4/1 23/1/1 24/2/1
f 25/3/1 26/4/1 27/1/1 28/2/1
f 29/1/1 30/2/1 31/3/1 32/4/1
f 33/5/1 34/6/1 35/7/1 36/8/1
f 37/1/1 38/2/1 39/3/1 40/4/1
f 41/3/1 42/4/1 43/1/1 44/2/1
f 45/3/1 46/4/1 47/1/1 48/2/1
f 49/1/1 50/2/1 51/3/1 52/4/1
f 53/3/1 54/4/1 55/1/1 56/2/1
f 57/1/1 58/2/1 59/3/1 60/4/1
f 61/3/1 62/4/1 63/1/1 64/2/1

