# Tiled2Unity generated file. Do not modify by hand.
# Wavefront file for 'Kahris_home_mesh_0003.obj'

# Vertices (Count = 112)
v 0 -3.902439 0
v -1.02439 -3.902439 0
v -1.02439 -2.878049 0
v 0 -2.878049 0
v -12.68293 -3.902439 0
v -13.70732 -3.902439 0
v -13.70732 -2.878049 0
v -12.68293 -2.878049 0
v 0 -4.878048 0
v -1.02439 -4.878048 0
v -1.02439 -3.853658 0
v 0 -3.853658 0
v -6.829268 -4.878048 0
v -7.853658 -4.878048 0
v -7.853658 -3.853658 0
v -6.829268 -3.853658 0
v -7.804878 -4.878048 0
v -8.829268 -4.878048 0
v -8.829268 -3.853658 0
v -7.804878 -3.853658 0
v -8.780487 -4.878048 0
v -9.804877 -4.878048 0
v -9.804877 -3.853658 0
v -8.780487 -3.853658 0
v -12.68293 -4.878048 0
v -13.70732 -4.878048 0
v -13.70732 -3.853658 0
v -12.68293 -3.853658 0
v 0 -5.853658 0
v -1.02439 -5.853658 0
v -1.02439 -4.829268 0
v 0 -4.829268 0
v -6.829268 -5.853658 0
v -7.853658 -5.853658 0
v -7.853658 -4.829268 0
v -6.829268 -4.829268 0
v -7.804878 -5.853658 0
v -8.829268 -5.853658 0
v -8.829268 -4.829268 0
v -7.804878 -4.829268 0
v -8.780487 -5.853658 0
v -9.804877 -5.853658 0
v -9.804877 -4.829268 0
v -8.780487 -4.829268 0
v -12.68293 -5.853658 0
v -13.70732 -5.853658 0
v -13.70732 -4.829268 0
v -12.68293 -4.829268 0
v -12.68293 -6.829268 0
v -13.70732 -6.829268 0
v -13.70732 -5.804878 0
v -12.68293 -5.804878 0
v -12.68293 -7.804878 0
v -13.70732 -7.804878 0
v -13.70732 -6.780488 0
v -12.68293 -6.780488 0
v 0 -8.780487 0
v -1.02439 -8.780487 0
v -1.02439 -7.756097 0
v 0 -7.756097 0
v -0.9756097 -8.780487 0
v -2 -8.780487 0
v -2 -7.756097 0
v -0.9756097 -7.756097 0
v -1.951219 -8.780487 0
v -2.97561 -8.780487 0
v -2.97561 -7.756097 0
v -1.951219 -7.756097 0
v -2.926829 -8.780487 0
v -3.951219 -8.780487 0
v -3.951219 -7.756097 0
v -2.926829 -7.756097 0
v -3.902439 -8.780487 0
v -4.926829 -8.780487 0
v -4.926829 -7.756097 0
v -3.902439 -7.756097 0
v -4.878048 -8.780487 0
v -5.902439 -8.780487 0
v -5.902439 -7.756097 0
v -4.878048 -7.756097 0
v -5.853658 -8.780487 0
v -6.878048 -8.780487 0
v -6.878048 -7.756097 0
v -5.853658 -7.756097 0
v -6.829268 -8.780487 0
v -7.853658 -8.780487 0
v -7.853658 -7.756097 0
v -6.829268 -7.756097 0
v -7.804878 -8.780487 0
v -8.829268 -8.780487 0
v -8.829268 -7.756097 0
v -7.804878 -7.756097 0
v -8.780487 -8.780487 0
v -9.804877 -8.780487 0
v -9.804877 -7.756097 0
v -8.780487 -7.756097 0
v -9.756097 -8.780487 0
v -10.78049 -8.780487 0
v -10.78049 -7.756097 0
v -9.756097 -7.756097 0
v -10.73171 -8.780487 0
v -11.7561 -8.780487 0
v -11.7561 -7.756097 0
v -10.73171 -7.756097 0
v -11.70732 -8.780487 0
v -12.73171 -8.780487 0
v -12.73171 -7.756097 0
v -11.70732 -7.756097 0
v -12.68293 -8.780487 0
v -13.70732 -8.780487 0
v -13.70732 -7.756097 0
v -12.68293 -7.756097 0

# Texture cooridinates (Count = 16)
vt 0.2023121 0.5650289
vt 0.2023121 0.5346821
vt 0.232659 0.5346821
vt 0.232659 0.5650289
vt 0.1690751 0.2355492
vt 0.199422 0.2355492
vt 0.199422 0.265896
vt 0.1690751 0.265896
vt 0.3684971 0.734104
vt 0.3988439 0.734104
vt 0.3988439 0.7644508
vt 0.3684971 0.7644508
vt 0.1690751 0.2687861
vt 0.199422 0.2687861
vt 0.199422 0.2991329
vt 0.1690751 0.2991329

# Normal
vn 0 0 -1

# Mesh description
g Kahris_home_mesh_0003

# Faces
f 1/1/1 2/2/1 3/3/1 4/4/1
f 5/3/1 6/4/1 7/1/1 8/2/1
f 9/1/1 10/2/1 11/3/1 12/4/1
f 13/5/1 14/6/1 15/7/1 16/8/1
f 17/9/1 18/10/1 19/11/1 20/12/1
f 21/5/1 22/6/1 23/7/1 24/8/1
f 25/3/1 26/4/1 27/1/1 28/2/1
f 29/1/1 30/2/1 31/3/1 32/4/1
f 33/7/1 34/8/1 35/5/1 36/6/1
f 37/7/1 38/8/1 39/5/1 40/6/1
f 41/7/1 42/8/1 43/5/1 44/6/1
f 45/3/1 46/4/1 47/1/1 48/2/1
f 49/3/1 50/4/1 51/1/1 52/2/1
f 53/3/1 54/4/1 55/1/1 56/2/1
f 57/13/1 58/14/1 59/15/1 60/16/1
f 61/13/1 62/14/1 63/15/1 64/16/1
f 65/13/1 66/14/1 67/15/1 68/16/1
f 69/13/1 70/14/1 71/15/1 72/16/1
f 73/13/1 74/14/1 75/15/1 76/16/1
f 77/13/1 78/14/1 79/15/1 80/16/1
f 81/13/1 82/14/1 83/15/1 84/16/1
f 85/13/1 86/14/1 87/15/1 88/16/1
f 89/13/1 90/14/1 91/15/1 92/16/1
f 93/13/1 94/14/1 95/15/1 96/16/1
f 97/13/1 98/14/1 99/15/1 100/16/1
f 101/13/1 102/14/1 103/15/1 104/16/1
f 105/13/1 106/14/1 107/15/1 108/16/1
f 109/13/1 110/14/1 111/15/1 112/16/1

