# Tiled2Unity generated file. Do not modify by hand.
# Wavefront file for 'Acto_1_tiled_mesh_0003.obj'

# Vertices (Count = 36)
v -4.878048 -1.951219 0
v -5.902439 -1.951219 0
v -5.902439 -0.9268292 0
v -4.878048 -0.9268292 0
v -5.853658 -1.951219 0
v -6.878048 -1.951219 0
v -6.878048 -0.9268292 0
v -5.853658 -0.9268292 0
v -9.756097 -1.951219 0
v -10.78049 -1.951219 0
v -10.78049 -0.9268292 0
v -9.756097 -0.9268292 0
v -4.878048 -2.926829 0
v -5.902439 -2.926829 0
v -5.902439 -1.902439 0
v -4.878048 -1.902439 0
v -9.756097 -2.926829 0
v -10.78049 -2.926829 0
v -10.78049 -1.902439 0
v -9.756097 -1.902439 0
v -5.853658 -4.878048 0
v -6.878048 -4.878048 0
v -6.878048 -3.853658 0
v -5.853658 -3.853658 0
v -8.780487 -4.878048 0
v -9.804877 -4.878048 0
v -9.804877 -3.853658 0
v -8.780487 -3.853658 0
v -8.780487 -5.853658 0
v -9.804877 -5.853658 0
v -9.804877 -4.829268 0
v -8.780487 -4.829268 0
v -12.68293 -5.853658 0
v -13.70732 -5.853658 0
v -13.70732 -4.829268 0
v -12.68293 -4.829268 0

# Texture cooridinates (Count = 36)
vt 0.06936416 0.1026012
vt 0.09971099 0.1026012
vt 0.09971099 0.132948
vt 0.06936416 0.132948
vt 0.03612717 0.00289017
vt 0.06647399 0.00289017
vt 0.06647399 0.03323698
vt 0.03612717 0.03323698
vt 0.002890173 0.1026012
vt 0.033237 0.1026012
vt 0.033237 0.132948
vt 0.002890173 0.132948
vt 0.06936416 0.06936419
vt 0.09971099 0.06936419
vt 0.09971099 0.099711
vt 0.06936416 0.099711
vt 0.002890173 0.06936419
vt 0.033237 0.06936419
vt 0.033237 0.099711
vt 0.002890173 0.099711
vt 0.3684971 0.1358382
vt 0.3988439 0.1358382
vt 0.3988439 0.166185
vt 0.3684971 0.166185
vt 0.4017341 0.2023121
vt 0.4320809 0.2023121
vt 0.4320809 0.232659
vt 0.4017341 0.232659
vt 0.4017341 0.1690751
vt 0.4320809 0.1690751
vt 0.4320809 0.1994219
vt 0.4017341 0.1994219
vt 0.4682081 0.7008671
vt 0.4985549 0.7008671
vt 0.4985549 0.7312139
vt 0.4682081 0.7312139

# Normal
vn 0 0 -1

# Mesh description
g Acto_1_tiled_mesh_0003

# Faces
f 1/1/1 2/2/1 3/3/1 4/4/1
f 5/5/1 6/6/1 7/7/1 8/8/1
f 9/9/1 10/10/1 11/11/1 12/12/1
f 13/13/1 14/14/1 15/15/1 16/16/1
f 17/17/1 18/18/1 19/19/1 20/20/1
f 21/21/1 22/22/1 23/23/1 24/24/1
f 25/25/1 26/26/1 27/27/1 28/28/1
f 29/29/1 30/30/1 31/31/1 32/32/1
f 33/33/1 34/34/1 35/35/1 36/36/1

