# Tiled2Unity generated file. Do not modify by hand.
# Wavefront file for 'Acto_1_tiled_mesh_0002.obj'

# Vertices (Count = 400)
v -4.878048 -1.951219 0
v -5.902439 -1.951219 0
v -5.902439 -0.9268292 0
v -4.878048 -0.9268292 0
v -5.853658 -1.951219 0
v -6.878048 -1.951219 0
v -6.878048 -0.9268292 0
v -5.853658 -0.9268292 0
v -6.829268 -1.951219 0
v -7.853658 -1.951219 0
v -7.853658 -0.9268292 0
v -6.829268 -0.9268292 0
v -7.804878 -1.951219 0
v -8.829268 -1.951219 0
v -8.829268 -0.9268292 0
v -7.804878 -0.9268292 0
v -8.780487 -1.951219 0
v -9.804877 -1.951219 0
v -9.804877 -0.9268292 0
v -8.780487 -0.9268292 0
v -9.756097 -1.951219 0
v -10.78049 -1.951219 0
v -10.78049 -0.9268292 0
v -9.756097 -0.9268292 0
v -4.878048 -2.926829 0
v -5.902439 -2.926829 0
v -5.902439 -1.902439 0
v -4.878048 -1.902439 0
v -5.853658 -2.926829 0
v -6.878048 -2.926829 0
v -6.878048 -1.902439 0
v -5.853658 -1.902439 0
v -6.829268 -2.926829 0
v -7.853658 -2.926829 0
v -7.853658 -1.902439 0
v -6.829268 -1.902439 0
v -7.804878 -2.926829 0
v -8.829268 -2.926829 0
v -8.829268 -1.902439 0
v -7.804878 -1.902439 0
v -8.780487 -2.926829 0
v -9.804877 -2.926829 0
v -9.804877 -1.902439 0
v -8.780487 -1.902439 0
v -9.756097 -2.926829 0
v -10.78049 -2.926829 0
v -10.78049 -1.902439 0
v -9.756097 -1.902439 0
v -4.878048 -3.902439 0
v -5.902439 -3.902439 0
v -5.902439 -2.878049 0
v -4.878048 -2.878049 0
v -5.853658 -3.902439 0
v -6.878048 -3.902439 0
v -6.878048 -2.878049 0
v -5.853658 -2.878049 0
v -6.829268 -3.902439 0
v -7.853658 -3.902439 0
v -7.853658 -2.878049 0
v -6.829268 -2.878049 0
v -7.804878 -3.902439 0
v -8.829268 -3.902439 0
v -8.829268 -2.878049 0
v -7.804878 -2.878049 0
v -8.780487 -3.902439 0
v -9.804877 -3.902439 0
v -9.804877 -2.878049 0
v -8.780487 -2.878049 0
v -9.756097 -3.902439 0
v -10.78049 -3.902439 0
v -10.78049 -2.878049 0
v -9.756097 -2.878049 0
v -4.878048 -4.878048 0
v -5.902439 -4.878048 0
v -5.902439 -3.853658 0
v -4.878048 -3.853658 0
v -5.853658 -4.878048 0
v -6.878048 -4.878048 0
v -6.878048 -3.853658 0
v -5.853658 -3.853658 0
v -6.829268 -4.878048 0
v -7.853658 -4.878048 0
v -7.853658 -3.853658 0
v -6.829268 -3.853658 0
v -7.804878 -4.878048 0
v -8.829268 -4.878048 0
v -8.829268 -3.853658 0
v -7.804878 -3.853658 0
v -8.780487 -4.878048 0
v -9.804877 -4.878048 0
v -9.804877 -3.853658 0
v -8.780487 -3.853658 0
v -9.756097 -4.878048 0
v -10.78049 -4.878048 0
v -10.78049 -3.853658 0
v -9.756097 -3.853658 0
v -0.9756097 -5.853658 0
v -2 -5.853658 0
v -2 -4.829268 0
v -0.9756097 -4.829268 0
v -3.902439 -5.853658 0
v -4.926829 -5.853658 0
v -4.926829 -4.829268 0
v -3.902439 -4.829268 0
v -4.878048 -5.853658 0
v -5.902439 -5.853658 0
v -5.902439 -4.829268 0
v -4.878048 -4.829268 0
v -5.853658 -5.853658 0
v -6.878048 -5.853658 0
v -6.878048 -4.829268 0
v -5.853658 -4.829268 0
v -6.829268 -5.853658 0
v -7.853658 -5.853658 0
v -7.853658 -4.829268 0
v -6.829268 -4.829268 0
v -7.804878 -5.853658 0
v -8.829268 -5.853658 0
v -8.829268 -4.829268 0
v -7.804878 -4.829268 0
v -8.780487 -5.853658 0
v -9.804877 -5.853658 0
v -9.804877 -4.829268 0
v -8.780487 -4.829268 0
v -9.756097 -5.853658 0
v -10.78049 -5.853658 0
v -10.78049 -4.829268 0
v -9.756097 -4.829268 0
v -12.68293 -5.853658 0
v -13.70732 -5.853658 0
v -13.70732 -4.829268 0
v -12.68293 -4.829268 0
v -2.926829 -6.829268 0
v -3.951219 -6.829268 0
v -3.951219 -5.804878 0
v -2.926829 -5.804878 0
v -3.902439 -6.829268 0
v -4.926829 -6.829268 0
v -4.926829 -5.804878 0
v -3.902439 -5.804878 0
v -4.878048 -6.829268 0
v -5.902439 -6.829268 0
v -5.902439 -5.804878 0
v -4.878048 -5.804878 0
v -5.853658 -6.829268 0
v -6.878048 -6.829268 0
v -6.878048 -5.804878 0
v -5.853658 -5.804878 0
v -6.829268 -6.829268 0
v -7.853658 -6.829268 0
v -7.853658 -5.804878 0
v -6.829268 -5.804878 0
v -7.804878 -6.829268 0
v -8.829268 -6.829268 0
v -8.829268 -5.804878 0
v -7.804878 -5.804878 0
v -8.780487 -6.829268 0
v -9.804877 -6.829268 0
v -9.804877 -5.804878 0
v -8.780487 -5.804878 0
v -9.756097 -6.829268 0
v -10.78049 -6.829268 0
v -10.78049 -5.804878 0
v -9.756097 -5.804878 0
v -10.73171 -6.829268 0
v -11.7561 -6.829268 0
v -11.7561 -5.804878 0
v -10.73171 -5.804878 0
v -11.70732 -6.829268 0
v -12.73171 -6.829268 0
v -12.73171 -5.804878 0
v -11.70732 -5.804878 0
v -12.68293 -6.829268 0
v -13.70732 -6.829268 0
v -13.70732 -5.804878 0
v -12.68293 -5.804878 0
v -13.65854 -6.829268 0
v -14.68293 -6.829268 0
v -14.68293 -5.804878 0
v -13.65854 -5.804878 0
v -14.63415 -6.829268 0
v -15.65854 -6.829268 0
v -15.65854 -5.804878 0
v -14.63415 -5.804878 0
v 0 -7.804878 0
v -1.02439 -7.804878 0
v -1.02439 -6.780488 0
v 0 -6.780488 0
v -0.9756097 -7.804878 0
v -2 -7.804878 0
v -2 -6.780488 0
v -0.9756097 -6.780488 0
v -1.951219 -7.804878 0
v -2.97561 -7.804878 0
v -2.97561 -6.780488 0
v -1.951219 -6.780488 0
v -2.926829 -7.804878 0
v -3.951219 -7.804878 0
v -3.951219 -6.780488 0
v -2.926829 -6.780488 0
v -3.902439 -7.804878 0
v -4.926829 -7.804878 0
v -4.926829 -6.780488 0
v -3.902439 -6.780488 0
v -4.878048 -7.804878 0
v -5.902439 -7.804878 0
v -5.902439 -6.780488 0
v -4.878048 -6.780488 0
v -5.853658 -7.804878 0
v -6.878048 -7.804878 0
v -6.878048 -6.780488 0
v -5.853658 -6.780488 0
v -6.829268 -7.804878 0
v -7.853658 -7.804878 0
v -7.853658 -6.780488 0
v -6.829268 -6.780488 0
v -7.804878 -7.804878 0
v -8.829268 -7.804878 0
v -8.829268 -6.780488 0
v -7.804878 -6.780488 0
v -8.780487 -7.804878 0
v -9.804877 -7.804878 0
v -9.804877 -6.780488 0
v -8.780487 -6.780488 0
v -9.756097 -7.804878 0
v -10.78049 -7.804878 0
v -10.78049 -6.780488 0
v -9.756097 -6.780488 0
v -10.73171 -7.804878 0
v -11.7561 -7.804878 0
v -11.7561 -6.780488 0
v -10.73171 -6.780488 0
v -11.70732 -7.804878 0
v -12.73171 -7.804878 0
v -12.73171 -6.780488 0
v -11.70732 -6.780488 0
v -12.68293 -7.804878 0
v -13.70732 -7.804878 0
v -13.70732 -6.780488 0
v -12.68293 -6.780488 0
v -13.65854 -7.804878 0
v -14.68293 -7.804878 0
v -14.68293 -6.780488 0
v -13.65854 -6.780488 0
v -14.63415 -7.804878 0
v -15.65854 -7.804878 0
v -15.65854 -6.780488 0
v -14.63415 -6.780488 0
v -15.60976 -7.804878 0
v -16.63415 -7.804878 0
v -16.63415 -6.780488 0
v -15.60976 -6.780488 0
v 0 -8.780487 0
v -1.02439 -8.780487 0
v -1.02439 -7.756097 0
v 0 -7.756097 0
v -0.9756097 -8.780487 0
v -2 -8.780487 0
v -2 -7.756097 0
v -0.9756097 -7.756097 0
v -1.951219 -8.780487 0
v -2.97561 -8.780487 0
v -2.97561 -7.756097 0
v -1.951219 -7.756097 0
v -2.926829 -8.780487 0
v -3.951219 -8.780487 0
v -3.951219 -7.756097 0
v -2.926829 -7.756097 0
v -3.902439 -8.780487 0
v -4.926829 -8.780487 0
v -4.926829 -7.756097 0
v -3.902439 -7.756097 0
v -4.878048 -8.780487 0
v -5.902439 -8.780487 0
v -5.902439 -7.756097 0
v -4.878048 -7.756097 0
v -5.853658 -8.780487 0
v -6.878048 -8.780487 0
v -6.878048 -7.756097 0
v -5.853658 -7.756097 0
v -6.829268 -8.780487 0
v -7.853658 -8.780487 0
v -7.853658 -7.756097 0
v -6.829268 -7.756097 0
v -7.804878 -8.780487 0
v -8.829268 -8.780487 0
v -8.829268 -7.756097 0
v -7.804878 -7.756097 0
v -8.780487 -8.780487 0
v -9.804877 -8.780487 0
v -9.804877 -7.756097 0
v -8.780487 -7.756097 0
v -9.756097 -8.780487 0
v -10.78049 -8.780487 0
v -10.78049 -7.756097 0
v -9.756097 -7.756097 0
v -10.73171 -8.780487 0
v -11.7561 -8.780487 0
v -11.7561 -7.756097 0
v -10.73171 -7.756097 0
v -11.70732 -8.780487 0
v -12.73171 -8.780487 0
v -12.73171 -7.756097 0
v -11.70732 -7.756097 0
v -12.68293 -8.780487 0
v -13.70732 -8.780487 0
v -13.70732 -7.756097 0
v -12.68293 -7.756097 0
v -13.65854 -8.780487 0
v -14.68293 -8.780487 0
v -14.68293 -7.756097 0
v -13.65854 -7.756097 0
v -14.63415 -8.780487 0
v -15.65854 -8.780487 0
v -15.65854 -7.756097 0
v -14.63415 -7.756097 0
v -15.60976 -8.780487 0
v -16.63415 -8.780487 0
v -16.63415 -7.756097 0
v -15.60976 -7.756097 0
v -16.58537 -8.780487 0
v -17.60975 -8.780487 0
v -17.60975 -7.756097 0
v -16.58537 -7.756097 0
v 0 -9.756097 0
v -1.02439 -9.756097 0
v -1.02439 -8.731707 0
v 0 -8.731707 0
v -0.9756097 -9.756097 0
v -2 -9.756097 0
v -2 -8.731707 0
v -0.9756097 -8.731707 0
v -1.951219 -9.756097 0
v -2.97561 -9.756097 0
v -2.97561 -8.731707 0
v -1.951219 -8.731707 0
v -2.926829 -9.756097 0
v -3.951219 -9.756097 0
v -3.951219 -8.731707 0
v -2.926829 -8.731707 0
v -3.902439 -9.756097 0
v -4.926829 -9.756097 0
v -4.926829 -8.731707 0
v -3.902439 -8.731707 0
v -4.878048 -9.756097 0
v -5.902439 -9.756097 0
v -5.902439 -8.731707 0
v -4.878048 -8.731707 0
v -5.853658 -9.756097 0
v -6.878048 -9.756097 0
v -6.878048 -8.731707 0
v -5.853658 -8.731707 0
v -6.829268 -9.756097 0
v -7.853658 -9.756097 0
v -7.853658 -8.731707 0
v -6.829268 -8.731707 0
v -7.804878 -9.756097 0
v -8.829268 -9.756097 0
v -8.829268 -8.731707 0
v -7.804878 -8.731707 0
v -8.780487 -9.756097 0
v -9.804877 -9.756097 0
v -9.804877 -8.731707 0
v -8.780487 -8.731707 0
v -9.756097 -9.756097 0
v -10.78049 -9.756097 0
v -10.78049 -8.731707 0
v -9.756097 -8.731707 0
v -10.73171 -9.756097 0
v -11.7561 -9.756097 0
v -11.7561 -8.731707 0
v -10.73171 -8.731707 0
v -11.70732 -9.756097 0
v -12.73171 -9.756097 0
v -12.73171 -8.731707 0
v -11.70732 -8.731707 0
v -12.68293 -9.756097 0
v -13.70732 -9.756097 0
v -13.70732 -8.731707 0
v -12.68293 -8.731707 0
v -13.65854 -9.756097 0
v -14.68293 -9.756097 0
v -14.68293 -8.731707 0
v -13.65854 -8.731707 0
v -14.63415 -9.756097 0
v -15.65854 -9.756097 0
v -15.65854 -8.731707 0
v -14.63415 -8.731707 0
v -15.60976 -9.756097 0
v -16.63415 -9.756097 0
v -16.63415 -8.731707 0
v -15.60976 -8.731707 0
v -16.58537 -9.756097 0
v -17.60975 -9.756097 0
v -17.60975 -8.731707 0
v -16.58537 -8.731707 0
v -17.56097 -9.756097 0
v -18.58537 -9.756097 0
v -18.58537 -8.731707 0
v -17.56097 -8.731707 0

# Texture cooridinates (Count = 72)
vt 0.03612717 0.1026012
vt 0.06647399 0.1026012
vt 0.06647399 0.132948
vt 0.03612717 0.132948
vt 0.03612717 0.06936419
vt 0.06647399 0.06936419
vt 0.06647399 0.099711
vt 0.03612717 0.099711
vt 0.1026012 0.1690751
vt 0.132948 0.1690751
vt 0.132948 0.1994219
vt 0.1026012 0.1994219
vt 0.1358382 0.1690751
vt 0.166185 0.1690751
vt 0.166185 0.1994219
vt 0.1358382 0.1994219
vt 0.1690751 0.1690751
vt 0.199422 0.1690751
vt 0.199422 0.1994219
vt 0.1690751 0.1994219
vt 0.5679191 0.6343931
vt 0.5982659 0.6343931
vt 0.5982659 0.6647398
vt 0.5679191 0.6647398
vt 0.2687861 0.03612715
vt 0.2991329 0.03612715
vt 0.2991329 0.06647396
vt 0.2687861 0.06647396
vt 0.1026012 0.1358382
vt 0.132948 0.1358382
vt 0.132948 0.166185
vt 0.1026012 0.166185
vt 0.1358382 0.1358382
vt 0.166185 0.1358382
vt 0.166185 0.166185
vt 0.1358382 0.166185
vt 0.1690751 0.1358382
vt 0.199422 0.1358382
vt 0.199422 0.166185
vt 0.1690751 0.166185
vt 0.5679191 0.966763
vt 0.5982659 0.966763
vt 0.5982659 0.9971098
vt 0.5679191 0.9971098
vt 0.2023121 0.7008671
vt 0.232659 0.7008671
vt 0.232659 0.7312139
vt 0.2023121 0.7312139
vt 0.1026012 0.7008671
vt 0.132948 0.7008671
vt 0.132948 0.7312139
vt 0.1026012 0.7312139
vt 0.2355491 0.7008671
vt 0.265896 0.7008671
vt 0.265896 0.7312139
vt 0.2355491 0.7312139
vt 0.06936416 0.7008671
vt 0.09971099 0.7008671
vt 0.09971099 0.7312139
vt 0.06936416 0.7312139
vt 0.2023121 0.6676301
vt 0.232659 0.6676301
vt 0.232659 0.6979769
vt 0.2023121 0.6979769
vt 0.06936416 0.6676301
vt 0.09971099 0.6676301
vt 0.09971099 0.6979769
vt 0.06936416 0.6979769
vt 0.2355491 0.6676301
vt 0.265896 0.6676301
vt 0.265896 0.6979769
vt 0.2355491 0.6979769

# Normal
vn 0 0 -1

# Mesh description
g Acto_1_tiled_mesh_0002

# Faces
f 1/1/1 2/2/1 3/3/1 4/4/1
f 5/1/1 6/2/1 7/3/1 8/4/1
f 9/1/1 10/2/1 11/3/1 12/4/1
f 13/1/1 14/2/1 15/3/1 16/4/1
f 17/1/1 18/2/1 19/3/1 20/4/1
f 21/1/1 22/2/1 23/3/1 24/4/1
f 25/5/1 26/6/1 27/7/1 28/8/1
f 29/5/1 30/6/1 31/7/1 32/8/1
f 33/5/1 34/6/1 35/7/1 36/8/1
f 37/5/1 38/6/1 39/7/1 40/8/1
f 41/5/1 42/6/1 43/7/1 44/8/1
f 45/5/1 46/6/1 47/7/1 48/8/1
f 49/9/1 50/10/1 51/11/1 52/12/1
f 53/13/1 54/14/1 55/15/1 56/16/1
f 57/13/1 58/14/1 59/15/1 60/16/1
f 61/13/1 62/14/1 63/15/1 64/16/1
f 65/13/1 66/14/1 67/15/1 68/16/1
f 69/17/1 70/18/1 71/19/1 72/20/1
f 73/9/1 74/10/1 75/11/1 76/12/1
f 77/13/1 78/14/1 79/15/1 80/16/1
f 81/13/1 82/14/1 83/15/1 84/16/1
f 85/13/1 86/14/1 87/15/1 88/16/1
f 89/13/1 90/14/1 91/15/1 92/16/1
f 93/17/1 94/18/1 95/19/1 96/20/1
f 97/21/1 98/22/1 99/23/1 100/24/1
f 101/25/1 102/26/1 103/27/1 104/28/1
f 105/29/1 106/30/1 107/31/1 108/32/1
f 109/33/1 110/34/1 111/35/1 112/36/1
f 113/33/1 114/34/1 115/35/1 116/36/1
f 117/33/1 118/34/1 119/35/1 120/36/1
f 121/33/1 122/34/1 123/35/1 124/36/1
f 125/37/1 126/38/1 127/39/1 128/40/1
f 129/41/1 130/42/1 131/43/1 132/44/1
f 133/45/1 134/46/1 135/47/1 136/48/1
f 137/49/1 138/50/1 139/51/1 140/52/1
f 141/49/1 142/50/1 143/51/1 144/52/1
f 145/49/1 146/50/1 147/51/1 148/52/1
f 149/49/1 150/50/1 151/51/1 152/52/1
f 153/49/1 154/50/1 155/51/1 156/52/1
f 157/49/1 158/50/1 159/51/1 160/52/1
f 161/49/1 162/50/1 163/51/1 164/52/1
f 165/49/1 166/50/1 167/51/1 168/52/1
f 169/49/1 170/50/1 171/51/1 172/52/1
f 173/49/1 174/50/1 175/51/1 176/52/1
f 177/49/1 178/50/1 179/51/1 180/52/1
f 181/53/1 182/54/1 183/55/1 184/56/1
f 185/57/1 186/58/1 187/59/1 188/60/1
f 189/49/1 190/50/1 191/51/1 192/52/1
f 193/49/1 194/50/1 195/51/1 196/52/1
f 197/61/1 198/62/1 199/63/1 200/64/1
f 201/65/1 202/66/1 203/67/1 204/68/1
f 205/65/1 206/66/1 207/67/1 208/68/1
f 209/65/1 210/66/1 211/67/1 212/68/1
f 213/65/1 214/66/1 215/67/1 216/68/1
f 217/65/1 218/66/1 219/67/1 220/68/1
f 221/65/1 222/66/1 223/67/1 224/68/1
f 225/65/1 226/66/1 227/67/1 228/68/1
f 229/65/1 230/66/1 231/67/1 232/68/1
f 233/65/1 234/66/1 235/67/1 236/68/1
f 237/65/1 238/66/1 239/67/1 240/68/1
f 241/65/1 242/66/1 243/67/1 244/68/1
f 245/69/1 246/70/1 247/71/1 248/72/1
f 249/53/1 250/54/1 251/55/1 252/56/1
f 253/65/1 254/66/1 255/67/1 256/68/1
f 257/65/1 258/66/1 259/67/1 260/68/1
f 261/65/1 262/66/1 263/67/1 264/68/1
f 265/65/1 266/66/1 267/67/1 268/68/1
f 269/65/1 270/66/1 271/67/1 272/68/1
f 273/65/1 274/66/1 275/67/1 276/68/1
f 277/65/1 278/66/1 279/67/1 280/68/1
f 281/65/1 282/66/1 283/67/1 284/68/1
f 285/65/1 286/66/1 287/67/1 288/68/1
f 289/65/1 290/66/1 291/67/1 292/68/1
f 293/65/1 294/66/1 295/67/1 296/68/1
f 297/65/1 298/66/1 299/67/1 300/68/1
f 301/65/1 302/66/1 303/67/1 304/68/1
f 305/65/1 306/66/1 307/67/1 308/68/1
f 309/65/1 310/66/1 311/67/1 312/68/1
f 313/65/1 314/66/1 315/67/1 316/68/1
f 317/69/1 318/70/1 319/71/1 320/72/1
f 321/53/1 322/54/1 323/55/1 324/56/1
f 325/65/1 326/66/1 327/67/1 328/68/1
f 329/65/1 330/66/1 331/67/1 332/68/1
f 333/65/1 334/66/1 335/67/1 336/68/1
f 337/65/1 338/66/1 339/67/1 340/68/1
f 341/65/1 342/66/1 343/67/1 344/68/1
f 345/65/1 346/66/1 347/67/1 348/68/1
f 349/65/1 350/66/1 351/67/1 352/68/1
f 353/65/1 354/66/1 355/67/1 356/68/1
f 357/65/1 358/66/1 359/67/1 360/68/1
f 361/65/1 362/66/1 363/67/1 364/68/1
f 365/65/1 366/66/1 367/67/1 368/68/1
f 369/65/1 370/66/1 371/67/1 372/68/1
f 373/65/1 374/66/1 375/67/1 376/68/1
f 377/65/1 378/66/1 379/67/1 380/68/1
f 381/65/1 382/66/1 383/67/1 384/68/1
f 385/65/1 386/66/1 387/67/1 388/68/1
f 389/65/1 390/66/1 391/67/1 392/68/1
f 393/69/1 394/70/1 395/71/1 396/72/1
f 397/49/1 398/50/1 399/51/1 400/52/1

