# Tiled2Unity generated file. Do not modify by hand.
# Wavefront file for 'prueba_mesh_0001.obj'

# Vertices (Count = 80)
v -4 -5.333333 0
v -5.4 -5.333333 0
v -5.4 -3.933334 0
v -4 -3.933334 0
v -5.333333 -5.333333 0
v -6.733334 -5.333333 0
v -6.733334 -3.933334 0
v -5.333333 -3.933334 0
v -6.666667 -5.333333 0
v -8.066668 -5.333333 0
v -8.066668 -3.933334 0
v -6.666667 -3.933334 0
v -8 -5.333333 0
v -9.400001 -5.333333 0
v -9.400001 -3.933334 0
v -8 -3.933334 0
v -9.333334 -5.333333 0
v -10.73333 -5.333333 0
v -10.73333 -3.933334 0
v -9.333334 -3.933334 0
v -10.66667 -5.333333 0
v -12.06667 -5.333333 0
v -12.06667 -3.933334 0
v -10.66667 -3.933334 0
v -12 -5.333333 0
v -13.4 -5.333333 0
v -13.4 -3.933334 0
v -12 -3.933334 0
v -13.33333 -5.333333 0
v -14.73333 -5.333333 0
v -14.73333 -3.933334 0
v -13.33333 -3.933334 0
v -14.66667 -5.333333 0
v -16.06667 -5.333333 0
v -16.06667 -3.933334 0
v -14.66667 -3.933334 0
v -16 -5.333333 0
v -17.4 -5.333333 0
v -17.4 -3.933334 0
v -16 -3.933334 0
v -17.33333 -5.333333 0
v -18.73333 -5.333333 0
v -18.73333 -3.933334 0
v -17.33333 -3.933334 0
v -18.66667 -5.333333 0
v -20.06667 -5.333333 0
v -20.06667 -3.933334 0
v -18.66667 -3.933334 0
v -20 -5.333333 0
v -21.4 -5.333333 0
v -21.4 -3.933334 0
v -20 -3.933334 0
v -4 -6.666667 0
v -5.4 -6.666667 0
v -5.4 -5.266667 0
v -4 -5.266667 0
v -20 -6.666667 0
v -21.4 -6.666667 0
v -21.4 -5.266667 0
v -20 -5.266667 0
v -4 -8 0
v -5.4 -8 0
v -5.4 -6.6 0
v -4 -6.6 0
v -20 -8 0
v -21.4 -8 0
v -21.4 -6.6 0
v -20 -6.6 0
v -4 -9.333334 0
v -5.4 -9.333334 0
v -5.4 -7.933334 0
v -4 -7.933334 0
v -20 -9.333334 0
v -21.4 -9.333334 0
v -21.4 -7.933334 0
v -20 -7.933334 0
v -4 -10.66667 0
v -5.4 -10.66667 0
v -5.4 -9.266667 0
v -4 -9.266667 0

# Texture cooridinates (Count = 8)
vt 0.03612717 0.2023121
vt 0.06647399 0.2023121
vt 0.06647399 0.232659
vt 0.03612717 0.232659
vt 0.06936416 0.1690751
vt 0.09971099 0.1690751
vt 0.09971099 0.1994219
vt 0.06936416 0.1994219

# Normal
vn 0 0 -1

# Mesh description
g prueba_mesh_0001

# Faces
f 1/1/1 2/2/1 3/3/1 4/4/1
f 5/1/1 6/2/1 7/3/1 8/4/1
f 9/1/1 10/2/1 11/3/1 12/4/1
f 13/1/1 14/2/1 15/3/1 16/4/1
f 17/1/1 18/2/1 19/3/1 20/4/1
f 21/1/1 22/2/1 23/3/1 24/4/1
f 25/1/1 26/2/1 27/3/1 28/4/1
f 29/1/1 30/2/1 31/3/1 32/4/1
f 33/1/1 34/2/1 35/3/1 36/4/1
f 37/1/1 38/2/1 39/3/1 40/4/1
f 41/1/1 42/2/1 43/3/1 44/4/1
f 45/1/1 46/2/1 47/3/1 48/4/1
f 49/5/1 50/6/1 51/7/1 52/8/1
f 53/1/1 54/2/1 55/3/1 56/4/1
f 57/5/1 58/6/1 59/7/1 60/8/1
f 61/1/1 62/2/1 63/3/1 64/4/1
f 65/5/1 66/6/1 67/7/1 68/8/1
f 69/1/1 70/2/1 71/3/1 72/4/1
f 73/5/1 74/6/1 75/7/1 76/8/1
f 77/1/1 78/2/1 79/3/1 80/4/1

